<?xml version="1.0" encoding="utf-8" standalone="no"?>
<!DOCTYPE svg PUBLIC "-//W3C//DTD SVG 1.1//EN"
  "http://www.w3.org/Graphics/SVG/1.1/DTD/svg11.dtd">
<!-- Created with matplotlib (https://matplotlib.org/) -->
<svg height="585.539463pt" version="1.1" viewBox="0 0 705.695976 585.539463" width="705.695976pt" xmlns="http://www.w3.org/2000/svg" xmlns:xlink="http://www.w3.org/1999/xlink">
 <defs>
  <style type="text/css">
*{stroke-linecap:butt;stroke-linejoin:round;}
  </style>
 </defs>
 <g id="figure_1">
  <g id="patch_1">
   <path d="M 0 585.539463 
L 705.695976 585.539463 
L 705.695976 0 
L 0 0 
z
" style="fill:#ffffff;"/>
  </g>
  <g id="axes_1">
   <g id="patch_2">
    <path d="M 10.011601 513.56 
L 384.071601 513.56 
L 384.071601 7.2 
L 10.011601 7.2 
z
" style="fill:#ffffff;"/>
   </g>
   <g id="QuadMesh_1">
    <path clip-path="url(#p72e71e9e3a)" d="M 10.011601 7.2 
L 56.769101 7.2 
L 56.769101 53.232727 
L 10.011601 53.232727 
L 10.011601 7.2 
" style="fill:#f7fbff;"/>
    <path clip-path="url(#p72e71e9e3a)" d="M 56.769101 7.2 
L 103.526601 7.2 
L 103.526601 53.232727 
L 56.769101 53.232727 
L 56.769101 7.2 
" style="fill:#f7fbff;"/>
    <path clip-path="url(#p72e71e9e3a)" d="M 103.526601 7.2 
L 150.284101 7.2 
L 150.284101 53.232727 
L 103.526601 53.232727 
L 103.526601 7.2 
" style="fill:#f7fbff;"/>
    <path clip-path="url(#p72e71e9e3a)" d="M 150.284101 7.2 
L 197.041601 7.2 
L 197.041601 53.232727 
L 150.284101 53.232727 
L 150.284101 7.2 
" style="fill:#f7fbff;"/>
    <path clip-path="url(#p72e71e9e3a)" d="M 197.041601 7.2 
L 243.799101 7.2 
L 243.799101 53.232727 
L 197.041601 53.232727 
L 197.041601 7.2 
" style="fill:#08306b;"/>
    <path clip-path="url(#p72e71e9e3a)" d="M 243.799101 7.2 
L 290.556601 7.2 
L 290.556601 53.232727 
L 243.799101 53.232727 
L 243.799101 7.2 
" style="fill:#08306b;"/>
    <path clip-path="url(#p72e71e9e3a)" d="M 290.556601 7.2 
L 337.314101 7.2 
L 337.314101 53.232727 
L 290.556601 53.232727 
L 290.556601 7.2 
" style="fill:#f7fbff;"/>
    <path clip-path="url(#p72e71e9e3a)" d="M 337.314101 7.2 
L 384.071601 7.2 
L 384.071601 53.232727 
L 337.314101 53.232727 
L 337.314101 7.2 
" style="fill:#08306b;"/>
    <path clip-path="url(#p72e71e9e3a)" d="M 10.011601 53.232727 
L 56.769101 53.232727 
L 56.769101 99.265455 
L 10.011601 99.265455 
L 10.011601 53.232727 
" style="fill:#0d57a1;"/>
    <path clip-path="url(#p72e71e9e3a)" d="M 56.769101 53.232727 
L 103.526601 53.232727 
L 103.526601 99.265455 
L 56.769101 99.265455 
L 56.769101 53.232727 
" style="fill:#8abfdd;"/>
    <path clip-path="url(#p72e71e9e3a)" d="M 103.526601 53.232727 
L 150.284101 53.232727 
L 150.284101 99.265455 
L 103.526601 99.265455 
L 103.526601 53.232727 
" style="fill:#0d57a1;"/>
    <path clip-path="url(#p72e71e9e3a)" d="M 150.284101 53.232727 
L 197.041601 53.232727 
L 197.041601 99.265455 
L 150.284101 99.265455 
L 150.284101 53.232727 
" style="fill:#8abfdd;"/>
    <path clip-path="url(#p72e71e9e3a)" d="M 197.041601 53.232727 
L 243.799101 53.232727 
L 243.799101 99.265455 
L 197.041601 99.265455 
L 197.041601 53.232727 
" style="fill:#f7fbff;"/>
    <path clip-path="url(#p72e71e9e3a)" d="M 243.799101 53.232727 
L 290.556601 53.232727 
L 290.556601 99.265455 
L 243.799101 99.265455 
L 243.799101 53.232727 
" style="fill:#f7fbff;"/>
    <path clip-path="url(#p72e71e9e3a)" d="M 290.556601 53.232727 
L 337.314101 53.232727 
L 337.314101 99.265455 
L 290.556601 99.265455 
L 290.556601 53.232727 
" style="fill:#f7fbff;"/>
    <path clip-path="url(#p72e71e9e3a)" d="M 337.314101 53.232727 
L 384.071601 53.232727 
L 384.071601 99.265455 
L 337.314101 99.265455 
L 337.314101 53.232727 
" style="fill:#f7fbff;"/>
    <path clip-path="url(#p72e71e9e3a)" d="M 10.011601 99.265455 
L 56.769101 99.265455 
L 56.769101 145.298182 
L 10.011601 145.298182 
L 10.011601 99.265455 
" style="fill:#e1edf8;"/>
    <path clip-path="url(#p72e71e9e3a)" d="M 56.769101 99.265455 
L 103.526601 99.265455 
L 103.526601 145.298182 
L 56.769101 145.298182 
L 56.769101 99.265455 
" style="fill:#e1edf8;"/>
    <path clip-path="url(#p72e71e9e3a)" d="M 103.526601 99.265455 
L 150.284101 99.265455 
L 150.284101 145.298182 
L 103.526601 145.298182 
L 103.526601 99.265455 
" style="fill:#cbdef1;"/>
    <path clip-path="url(#p72e71e9e3a)" d="M 150.284101 99.265455 
L 197.041601 99.265455 
L 197.041601 145.298182 
L 150.284101 145.298182 
L 150.284101 99.265455 
" style="fill:#cbdef1;"/>
    <path clip-path="url(#p72e71e9e3a)" d="M 197.041601 99.265455 
L 243.799101 99.265455 
L 243.799101 145.298182 
L 197.041601 145.298182 
L 197.041601 99.265455 
" style="fill:#f7fbff;"/>
    <path clip-path="url(#p72e71e9e3a)" d="M 243.799101 99.265455 
L 290.556601 99.265455 
L 290.556601 145.298182 
L 243.799101 145.298182 
L 243.799101 99.265455 
" style="fill:#f7fbff;"/>
    <path clip-path="url(#p72e71e9e3a)" d="M 290.556601 99.265455 
L 337.314101 99.265455 
L 337.314101 145.298182 
L 290.556601 145.298182 
L 290.556601 99.265455 
" style="fill:#f7fbff;"/>
    <path clip-path="url(#p72e71e9e3a)" d="M 337.314101 99.265455 
L 384.071601 99.265455 
L 384.071601 145.298182 
L 337.314101 145.298182 
L 337.314101 99.265455 
" style="fill:#f7fbff;"/>
    <path clip-path="url(#p72e71e9e3a)" d="M 10.011601 145.298182 
L 56.769101 145.298182 
L 56.769101 191.330909 
L 10.011601 191.330909 
L 10.011601 145.298182 
" style="fill:#f7fbff;"/>
    <path clip-path="url(#p72e71e9e3a)" d="M 56.769101 145.298182 
L 103.526601 145.298182 
L 103.526601 191.330909 
L 56.769101 191.330909 
L 56.769101 145.298182 
" style="fill:#c3daee;"/>
    <path clip-path="url(#p72e71e9e3a)" d="M 103.526601 145.298182 
L 150.284101 145.298182 
L 150.284101 191.330909 
L 103.526601 191.330909 
L 103.526601 145.298182 
" style="fill:#c3daee;"/>
    <path clip-path="url(#p72e71e9e3a)" d="M 150.284101 145.298182 
L 197.041601 145.298182 
L 197.041601 191.330909 
L 150.284101 191.330909 
L 150.284101 145.298182 
" style="fill:#c3daee;"/>
    <path clip-path="url(#p72e71e9e3a)" d="M 197.041601 145.298182 
L 243.799101 145.298182 
L 243.799101 191.330909 
L 197.041601 191.330909 
L 197.041601 145.298182 
" style="fill:#f7fbff;"/>
    <path clip-path="url(#p72e71e9e3a)" d="M 243.799101 145.298182 
L 290.556601 145.298182 
L 290.556601 191.330909 
L 243.799101 191.330909 
L 243.799101 145.298182 
" style="fill:#f7fbff;"/>
    <path clip-path="url(#p72e71e9e3a)" d="M 290.556601 145.298182 
L 337.314101 145.298182 
L 337.314101 191.330909 
L 290.556601 191.330909 
L 290.556601 145.298182 
" style="fill:#f7fbff;"/>
    <path clip-path="url(#p72e71e9e3a)" d="M 337.314101 145.298182 
L 384.071601 145.298182 
L 384.071601 191.330909 
L 337.314101 191.330909 
L 337.314101 145.298182 
" style="fill:#f7fbff;"/>
    <path clip-path="url(#p72e71e9e3a)" d="M 10.011601 191.330909 
L 56.769101 191.330909 
L 56.769101 237.363636 
L 10.011601 237.363636 
L 10.011601 191.330909 
" style="fill:#f7fbff;"/>
    <path clip-path="url(#p72e71e9e3a)" d="M 56.769101 191.330909 
L 103.526601 191.330909 
L 103.526601 237.363636 
L 56.769101 237.363636 
L 56.769101 191.330909 
" style="fill:#f7fbff;"/>
    <path clip-path="url(#p72e71e9e3a)" d="M 103.526601 191.330909 
L 150.284101 191.330909 
L 150.284101 237.363636 
L 103.526601 237.363636 
L 103.526601 191.330909 
" style="fill:#f7fbff;"/>
    <path clip-path="url(#p72e71e9e3a)" d="M 150.284101 191.330909 
L 197.041601 191.330909 
L 197.041601 237.363636 
L 150.284101 237.363636 
L 150.284101 191.330909 
" style="fill:#f7fbff;"/>
    <path clip-path="url(#p72e71e9e3a)" d="M 197.041601 191.330909 
L 243.799101 191.330909 
L 243.799101 237.363636 
L 197.041601 237.363636 
L 197.041601 191.330909 
" style="fill:#a3cce3;"/>
    <path clip-path="url(#p72e71e9e3a)" d="M 243.799101 191.330909 
L 290.556601 191.330909 
L 290.556601 237.363636 
L 243.799101 237.363636 
L 243.799101 191.330909 
" style="fill:#a3cce3;"/>
    <path clip-path="url(#p72e71e9e3a)" d="M 290.556601 191.330909 
L 337.314101 191.330909 
L 337.314101 237.363636 
L 290.556601 237.363636 
L 290.556601 191.330909 
" style="fill:#a3cce3;"/>
    <path clip-path="url(#p72e71e9e3a)" d="M 337.314101 191.330909 
L 384.071601 191.330909 
L 384.071601 237.363636 
L 337.314101 237.363636 
L 337.314101 191.330909 
" style="fill:#a3cce3;"/>
    <path clip-path="url(#p72e71e9e3a)" d="M 10.011601 237.363636 
L 56.769101 237.363636 
L 56.769101 283.396364 
L 10.011601 283.396364 
L 10.011601 237.363636 
" style="fill:#f7fbff;"/>
    <path clip-path="url(#p72e71e9e3a)" d="M 56.769101 237.363636 
L 103.526601 237.363636 
L 103.526601 283.396364 
L 56.769101 283.396364 
L 56.769101 237.363636 
" style="fill:#f7fbff;"/>
    <path clip-path="url(#p72e71e9e3a)" d="M 103.526601 237.363636 
L 150.284101 237.363636 
L 150.284101 283.396364 
L 103.526601 283.396364 
L 103.526601 237.363636 
" style="fill:#f7fbff;"/>
    <path clip-path="url(#p72e71e9e3a)" d="M 150.284101 237.363636 
L 197.041601 237.363636 
L 197.041601 283.396364 
L 150.284101 283.396364 
L 150.284101 237.363636 
" style="fill:#f7fbff;"/>
    <path clip-path="url(#p72e71e9e3a)" d="M 197.041601 237.363636 
L 243.799101 237.363636 
L 243.799101 283.396364 
L 197.041601 283.396364 
L 197.041601 237.363636 
" style="fill:#8abfdd;"/>
    <path clip-path="url(#p72e71e9e3a)" d="M 243.799101 237.363636 
L 290.556601 237.363636 
L 290.556601 283.396364 
L 243.799101 283.396364 
L 243.799101 237.363636 
" style="fill:#8abfdd;"/>
    <path clip-path="url(#p72e71e9e3a)" d="M 290.556601 237.363636 
L 337.314101 237.363636 
L 337.314101 283.396364 
L 290.556601 283.396364 
L 290.556601 237.363636 
" style="fill:#f7fbff;"/>
    <path clip-path="url(#p72e71e9e3a)" d="M 337.314101 237.363636 
L 384.071601 237.363636 
L 384.071601 283.396364 
L 337.314101 283.396364 
L 337.314101 237.363636 
" style="fill:#8abfdd;"/>
    <path clip-path="url(#p72e71e9e3a)" d="M 10.011601 283.396364 
L 56.769101 283.396364 
L 56.769101 329.429091 
L 10.011601 329.429091 
L 10.011601 283.396364 
" style="fill:#f7fbff;"/>
    <path clip-path="url(#p72e71e9e3a)" d="M 56.769101 283.396364 
L 103.526601 283.396364 
L 103.526601 329.429091 
L 56.769101 329.429091 
L 56.769101 283.396364 
" style="fill:#f7fbff;"/>
    <path clip-path="url(#p72e71e9e3a)" d="M 103.526601 283.396364 
L 150.284101 283.396364 
L 150.284101 329.429091 
L 103.526601 329.429091 
L 103.526601 283.396364 
" style="fill:#f7fbff;"/>
    <path clip-path="url(#p72e71e9e3a)" d="M 150.284101 283.396364 
L 197.041601 283.396364 
L 197.041601 329.429091 
L 150.284101 329.429091 
L 150.284101 283.396364 
" style="fill:#f7fbff;"/>
    <path clip-path="url(#p72e71e9e3a)" d="M 197.041601 283.396364 
L 243.799101 283.396364 
L 243.799101 329.429091 
L 197.041601 329.429091 
L 197.041601 283.396364 
" style="fill:#a3cce3;"/>
    <path clip-path="url(#p72e71e9e3a)" d="M 243.799101 283.396364 
L 290.556601 283.396364 
L 290.556601 329.429091 
L 243.799101 329.429091 
L 243.799101 283.396364 
" style="fill:#a3cce3;"/>
    <path clip-path="url(#p72e71e9e3a)" d="M 290.556601 283.396364 
L 337.314101 283.396364 
L 337.314101 329.429091 
L 290.556601 329.429091 
L 290.556601 283.396364 
" style="fill:#f7fbff;"/>
    <path clip-path="url(#p72e71e9e3a)" d="M 337.314101 283.396364 
L 384.071601 283.396364 
L 384.071601 329.429091 
L 337.314101 329.429091 
L 337.314101 283.396364 
" style="fill:#a3cce3;"/>
    <path clip-path="url(#p72e71e9e3a)" d="M 10.011601 329.429091 
L 56.769101 329.429091 
L 56.769101 375.461818 
L 10.011601 375.461818 
L 10.011601 329.429091 
" style="fill:#8dc1dd;"/>
    <path clip-path="url(#p72e71e9e3a)" d="M 56.769101 329.429091 
L 103.526601 329.429091 
L 103.526601 375.461818 
L 56.769101 375.461818 
L 56.769101 329.429091 
" style="fill:#8dc1dd;"/>
    <path clip-path="url(#p72e71e9e3a)" d="M 103.526601 329.429091 
L 150.284101 329.429091 
L 150.284101 375.461818 
L 103.526601 375.461818 
L 103.526601 329.429091 
" style="fill:#8dc1dd;"/>
    <path clip-path="url(#p72e71e9e3a)" d="M 150.284101 329.429091 
L 197.041601 329.429091 
L 197.041601 375.461818 
L 150.284101 375.461818 
L 150.284101 329.429091 
" style="fill:#8dc1dd;"/>
    <path clip-path="url(#p72e71e9e3a)" d="M 197.041601 329.429091 
L 243.799101 329.429091 
L 243.799101 375.461818 
L 197.041601 375.461818 
L 197.041601 329.429091 
" style="fill:#8dc1dd;"/>
    <path clip-path="url(#p72e71e9e3a)" d="M 243.799101 329.429091 
L 290.556601 329.429091 
L 290.556601 375.461818 
L 243.799101 375.461818 
L 243.799101 329.429091 
" style="fill:#8dc1dd;"/>
    <path clip-path="url(#p72e71e9e3a)" d="M 290.556601 329.429091 
L 337.314101 329.429091 
L 337.314101 375.461818 
L 290.556601 375.461818 
L 290.556601 329.429091 
" style="fill:#8dc1dd;"/>
    <path clip-path="url(#p72e71e9e3a)" d="M 337.314101 329.429091 
L 384.071601 329.429091 
L 384.071601 375.461818 
L 337.314101 375.461818 
L 337.314101 329.429091 
" style="fill:#8dc1dd;"/>
    <path clip-path="url(#p72e71e9e3a)" d="M 10.011601 375.461818 
L 56.769101 375.461818 
L 56.769101 421.494545 
L 10.011601 421.494545 
L 10.011601 375.461818 
" style="fill:#a3cce3;"/>
    <path clip-path="url(#p72e71e9e3a)" d="M 56.769101 375.461818 
L 103.526601 375.461818 
L 103.526601 421.494545 
L 56.769101 421.494545 
L 56.769101 375.461818 
" style="fill:#a3cce3;"/>
    <path clip-path="url(#p72e71e9e3a)" d="M 103.526601 375.461818 
L 150.284101 375.461818 
L 150.284101 421.494545 
L 103.526601 421.494545 
L 103.526601 375.461818 
" style="fill:#a3cce3;"/>
    <path clip-path="url(#p72e71e9e3a)" d="M 150.284101 375.461818 
L 197.041601 375.461818 
L 197.041601 421.494545 
L 150.284101 421.494545 
L 150.284101 375.461818 
" style="fill:#a3cce3;"/>
    <path clip-path="url(#p72e71e9e3a)" d="M 197.041601 375.461818 
L 243.799101 375.461818 
L 243.799101 421.494545 
L 197.041601 421.494545 
L 197.041601 375.461818 
" style="fill:#a3cce3;"/>
    <path clip-path="url(#p72e71e9e3a)" d="M 243.799101 375.461818 
L 290.556601 375.461818 
L 290.556601 421.494545 
L 243.799101 421.494545 
L 243.799101 375.461818 
" style="fill:#a3cce3;"/>
    <path clip-path="url(#p72e71e9e3a)" d="M 290.556601 375.461818 
L 337.314101 375.461818 
L 337.314101 421.494545 
L 290.556601 421.494545 
L 290.556601 375.461818 
" style="fill:#a3cce3;"/>
    <path clip-path="url(#p72e71e9e3a)" d="M 337.314101 375.461818 
L 384.071601 375.461818 
L 384.071601 421.494545 
L 337.314101 421.494545 
L 337.314101 375.461818 
" style="fill:#a3cce3;"/>
    <path clip-path="url(#p72e71e9e3a)" d="M 10.011601 421.494545 
L 56.769101 421.494545 
L 56.769101 467.527273 
L 10.011601 467.527273 
L 10.011601 421.494545 
" style="fill:#d5e5f4;"/>
    <path clip-path="url(#p72e71e9e3a)" d="M 56.769101 421.494545 
L 103.526601 421.494545 
L 103.526601 467.527273 
L 56.769101 467.527273 
L 56.769101 421.494545 
" style="fill:#d5e5f4;"/>
    <path clip-path="url(#p72e71e9e3a)" d="M 103.526601 421.494545 
L 150.284101 421.494545 
L 150.284101 467.527273 
L 103.526601 467.527273 
L 103.526601 421.494545 
" style="fill:#d5e5f4;"/>
    <path clip-path="url(#p72e71e9e3a)" d="M 150.284101 421.494545 
L 197.041601 421.494545 
L 197.041601 467.527273 
L 150.284101 467.527273 
L 150.284101 421.494545 
" style="fill:#a6cee4;"/>
    <path clip-path="url(#p72e71e9e3a)" d="M 197.041601 421.494545 
L 243.799101 421.494545 
L 243.799101 467.527273 
L 197.041601 467.527273 
L 197.041601 421.494545 
" style="fill:#a6cee4;"/>
    <path clip-path="url(#p72e71e9e3a)" d="M 243.799101 421.494545 
L 290.556601 421.494545 
L 290.556601 467.527273 
L 243.799101 467.527273 
L 243.799101 421.494545 
" style="fill:#a6cee4;"/>
    <path clip-path="url(#p72e71e9e3a)" d="M 290.556601 421.494545 
L 337.314101 421.494545 
L 337.314101 467.527273 
L 290.556601 467.527273 
L 290.556601 421.494545 
" style="fill:#a6cee4;"/>
    <path clip-path="url(#p72e71e9e3a)" d="M 337.314101 421.494545 
L 384.071601 421.494545 
L 384.071601 467.527273 
L 337.314101 467.527273 
L 337.314101 421.494545 
" style="fill:#a6cee4;"/>
    <path clip-path="url(#p72e71e9e3a)" d="M 10.011601 467.527273 
L 56.769101 467.527273 
L 56.769101 513.56 
L 10.011601 513.56 
L 10.011601 467.527273 
" style="fill:#dbe9f6;"/>
    <path clip-path="url(#p72e71e9e3a)" d="M 56.769101 467.527273 
L 103.526601 467.527273 
L 103.526601 513.56 
L 56.769101 513.56 
L 56.769101 467.527273 
" style="fill:#dbe9f6;"/>
    <path clip-path="url(#p72e71e9e3a)" d="M 103.526601 467.527273 
L 150.284101 467.527273 
L 150.284101 513.56 
L 103.526601 513.56 
L 103.526601 467.527273 
" style="fill:#dbe9f6;"/>
    <path clip-path="url(#p72e71e9e3a)" d="M 150.284101 467.527273 
L 197.041601 467.527273 
L 197.041601 513.56 
L 150.284101 513.56 
L 150.284101 467.527273 
" style="fill:#dbe9f6;"/>
    <path clip-path="url(#p72e71e9e3a)" d="M 197.041601 467.527273 
L 243.799101 467.527273 
L 243.799101 513.56 
L 197.041601 513.56 
L 197.041601 467.527273 
" style="fill:#bad6eb;"/>
    <path clip-path="url(#p72e71e9e3a)" d="M 243.799101 467.527273 
L 290.556601 467.527273 
L 290.556601 513.56 
L 243.799101 513.56 
L 243.799101 467.527273 
" style="fill:#bad6eb;"/>
    <path clip-path="url(#p72e71e9e3a)" d="M 290.556601 467.527273 
L 337.314101 467.527273 
L 337.314101 513.56 
L 290.556601 513.56 
L 290.556601 467.527273 
" style="fill:#bad6eb;"/>
    <path clip-path="url(#p72e71e9e3a)" d="M 337.314101 467.527273 
L 384.071601 467.527273 
L 384.071601 513.56 
L 337.314101 513.56 
L 337.314101 467.527273 
" style="fill:#bad6eb;"/>
   </g>
   <g id="matplotlib.axis_1">
    <g id="xtick_1">
     <g id="line2d_1">
      <defs>
       <path d="M 0 0 
L 0 3.5 
" id="m3f9a3fb421" style="stroke:#000000;stroke-width:0.8;"/>
      </defs>
      <g>
       <use style="stroke:#000000;stroke-width:0.8;" x="33.390351" xlink:href="#m3f9a3fb421" y="513.56"/>
      </g>
     </g>
     <g id="text_1">
      <!-- CALU3_4H -->
      <defs>
       <path d="M 64.40625 67.28125 
L 64.40625 56.890625 
Q 59.421875 61.53125 53.78125 63.8125 
Q 48.140625 66.109375 41.796875 66.109375 
Q 29.296875 66.109375 22.65625 58.46875 
Q 16.015625 50.828125 16.015625 36.375 
Q 16.015625 21.96875 22.65625 14.328125 
Q 29.296875 6.6875 41.796875 6.6875 
Q 48.140625 6.6875 53.78125 8.984375 
Q 59.421875 11.28125 64.40625 15.921875 
L 64.40625 5.609375 
Q 59.234375 2.09375 53.4375 0.328125 
Q 47.65625 -1.421875 41.21875 -1.421875 
Q 24.65625 -1.421875 15.125 8.703125 
Q 5.609375 18.84375 5.609375 36.375 
Q 5.609375 53.953125 15.125 64.078125 
Q 24.65625 74.21875 41.21875 74.21875 
Q 47.75 74.21875 53.53125 72.484375 
Q 59.328125 70.75 64.40625 67.28125 
z
" id="DejaVuSans-67"/>
       <path d="M 34.1875 63.1875 
L 20.796875 26.90625 
L 47.609375 26.90625 
z
M 28.609375 72.90625 
L 39.796875 72.90625 
L 67.578125 0 
L 57.328125 0 
L 50.6875 18.703125 
L 17.828125 18.703125 
L 11.1875 0 
L 0.78125 0 
z
" id="DejaVuSans-65"/>
       <path d="M 9.8125 72.90625 
L 19.671875 72.90625 
L 19.671875 8.296875 
L 55.171875 8.296875 
L 55.171875 0 
L 9.8125 0 
z
" id="DejaVuSans-76"/>
       <path d="M 8.6875 72.90625 
L 18.609375 72.90625 
L 18.609375 28.609375 
Q 18.609375 16.890625 22.84375 11.734375 
Q 27.09375 6.59375 36.625 6.59375 
Q 46.09375 6.59375 50.34375 11.734375 
Q 54.59375 16.890625 54.59375 28.609375 
L 54.59375 72.90625 
L 64.5 72.90625 
L 64.5 27.390625 
Q 64.5 13.140625 57.4375 5.859375 
Q 50.390625 -1.421875 36.625 -1.421875 
Q 22.796875 -1.421875 15.734375 5.859375 
Q 8.6875 13.140625 8.6875 27.390625 
z
" id="DejaVuSans-85"/>
       <path d="M 40.578125 39.3125 
Q 47.65625 37.796875 51.625 33 
Q 55.609375 28.21875 55.609375 21.1875 
Q 55.609375 10.40625 48.1875 4.484375 
Q 40.765625 -1.421875 27.09375 -1.421875 
Q 22.515625 -1.421875 17.65625 -0.515625 
Q 12.796875 0.390625 7.625 2.203125 
L 7.625 11.71875 
Q 11.71875 9.328125 16.59375 8.109375 
Q 21.484375 6.890625 26.8125 6.890625 
Q 36.078125 6.890625 40.9375 10.546875 
Q 45.796875 14.203125 45.796875 21.1875 
Q 45.796875 27.640625 41.28125 31.265625 
Q 36.765625 34.90625 28.71875 34.90625 
L 20.21875 34.90625 
L 20.21875 43.015625 
L 29.109375 43.015625 
Q 36.375 43.015625 40.234375 45.921875 
Q 44.09375 48.828125 44.09375 54.296875 
Q 44.09375 59.90625 40.109375 62.90625 
Q 36.140625 65.921875 28.71875 65.921875 
Q 24.65625 65.921875 20.015625 65.03125 
Q 15.375 64.15625 9.8125 62.3125 
L 9.8125 71.09375 
Q 15.4375 72.65625 20.34375 73.4375 
Q 25.25 74.21875 29.59375 74.21875 
Q 40.828125 74.21875 47.359375 69.109375 
Q 53.90625 64.015625 53.90625 55.328125 
Q 53.90625 49.265625 50.4375 45.09375 
Q 46.96875 40.921875 40.578125 39.3125 
z
" id="DejaVuSans-51"/>
       <path d="M 50.984375 -16.609375 
L 50.984375 -23.578125 
L -0.984375 -23.578125 
L -0.984375 -16.609375 
z
" id="DejaVuSans-95"/>
       <path d="M 37.796875 64.3125 
L 12.890625 25.390625 
L 37.796875 25.390625 
z
M 35.203125 72.90625 
L 47.609375 72.90625 
L 47.609375 25.390625 
L 58.015625 25.390625 
L 58.015625 17.1875 
L 47.609375 17.1875 
L 47.609375 0 
L 37.796875 0 
L 37.796875 17.1875 
L 4.890625 17.1875 
L 4.890625 26.703125 
z
" id="DejaVuSans-52"/>
       <path d="M 9.8125 72.90625 
L 19.671875 72.90625 
L 19.671875 43.015625 
L 55.515625 43.015625 
L 55.515625 72.90625 
L 65.375 72.90625 
L 65.375 0 
L 55.515625 0 
L 55.515625 34.71875 
L 19.671875 34.71875 
L 19.671875 0 
L 9.8125 0 
z
" id="DejaVuSans-72"/>
      </defs>
      <g transform="translate(13.49767 570.940032)rotate(-45)scale(0.12 -0.12)">
       <use xlink:href="#DejaVuSans-67"/>
       <use x="69.824219" xlink:href="#DejaVuSans-65"/>
       <use x="138.232422" xlink:href="#DejaVuSans-76"/>
       <use x="193.867188" xlink:href="#DejaVuSans-85"/>
       <use x="267.060547" xlink:href="#DejaVuSans-51"/>
       <use x="330.683594" xlink:href="#DejaVuSans-95"/>
       <use x="380.683594" xlink:href="#DejaVuSans-52"/>
       <use x="444.306641" xlink:href="#DejaVuSans-72"/>
      </g>
     </g>
    </g>
    <g id="xtick_2">
     <g id="line2d_2">
      <g>
       <use style="stroke:#000000;stroke-width:0.8;" x="80.147851" xlink:href="#m3f9a3fb421" y="513.56"/>
      </g>
     </g>
     <g id="text_2">
      <!-- CALU3_8H -->
      <defs>
       <path d="M 31.78125 34.625 
Q 24.75 34.625 20.71875 30.859375 
Q 16.703125 27.09375 16.703125 20.515625 
Q 16.703125 13.921875 20.71875 10.15625 
Q 24.75 6.390625 31.78125 6.390625 
Q 38.8125 6.390625 42.859375 10.171875 
Q 46.921875 13.96875 46.921875 20.515625 
Q 46.921875 27.09375 42.890625 30.859375 
Q 38.875 34.625 31.78125 34.625 
z
M 21.921875 38.8125 
Q 15.578125 40.375 12.03125 44.71875 
Q 8.5 49.078125 8.5 55.328125 
Q 8.5 64.0625 14.71875 69.140625 
Q 20.953125 74.21875 31.78125 74.21875 
Q 42.671875 74.21875 48.875 69.140625 
Q 55.078125 64.0625 55.078125 55.328125 
Q 55.078125 49.078125 51.53125 44.71875 
Q 48 40.375 41.703125 38.8125 
Q 48.828125 37.15625 52.796875 32.3125 
Q 56.78125 27.484375 56.78125 20.515625 
Q 56.78125 9.90625 50.3125 4.234375 
Q 43.84375 -1.421875 31.78125 -1.421875 
Q 19.734375 -1.421875 13.25 4.234375 
Q 6.78125 9.90625 6.78125 20.515625 
Q 6.78125 27.484375 10.78125 32.3125 
Q 14.796875 37.15625 21.921875 38.8125 
z
M 18.3125 54.390625 
Q 18.3125 48.734375 21.84375 45.5625 
Q 25.390625 42.390625 31.78125 42.390625 
Q 38.140625 42.390625 41.71875 45.5625 
Q 45.3125 48.734375 45.3125 54.390625 
Q 45.3125 60.0625 41.71875 63.234375 
Q 38.140625 66.40625 31.78125 66.40625 
Q 25.390625 66.40625 21.84375 63.234375 
Q 18.3125 60.0625 18.3125 54.390625 
z
" id="DejaVuSans-56"/>
      </defs>
      <g transform="translate(60.25517 570.940032)rotate(-45)scale(0.12 -0.12)">
       <use xlink:href="#DejaVuSans-67"/>
       <use x="69.824219" xlink:href="#DejaVuSans-65"/>
       <use x="138.232422" xlink:href="#DejaVuSans-76"/>
       <use x="193.867188" xlink:href="#DejaVuSans-85"/>
       <use x="267.060547" xlink:href="#DejaVuSans-51"/>
       <use x="330.683594" xlink:href="#DejaVuSans-95"/>
       <use x="380.683594" xlink:href="#DejaVuSans-56"/>
       <use x="444.306641" xlink:href="#DejaVuSans-72"/>
      </g>
     </g>
    </g>
    <g id="xtick_3">
     <g id="line2d_3">
      <g>
       <use style="stroke:#000000;stroke-width:0.8;" x="126.905351" xlink:href="#m3f9a3fb421" y="513.56"/>
      </g>
     </g>
     <g id="text_3">
      <!-- CALU3_12H -->
      <defs>
       <path d="M 12.40625 8.296875 
L 28.515625 8.296875 
L 28.515625 63.921875 
L 10.984375 60.40625 
L 10.984375 69.390625 
L 28.421875 72.90625 
L 38.28125 72.90625 
L 38.28125 8.296875 
L 54.390625 8.296875 
L 54.390625 0 
L 12.40625 0 
z
" id="DejaVuSans-49"/>
       <path d="M 19.1875 8.296875 
L 53.609375 8.296875 
L 53.609375 0 
L 7.328125 0 
L 7.328125 8.296875 
Q 12.9375 14.109375 22.625 23.890625 
Q 32.328125 33.6875 34.8125 36.53125 
Q 39.546875 41.84375 41.421875 45.53125 
Q 43.3125 49.21875 43.3125 52.78125 
Q 43.3125 58.59375 39.234375 62.25 
Q 35.15625 65.921875 28.609375 65.921875 
Q 23.96875 65.921875 18.8125 64.3125 
Q 13.671875 62.703125 7.8125 59.421875 
L 7.8125 69.390625 
Q 13.765625 71.78125 18.9375 73 
Q 24.125 74.21875 28.421875 74.21875 
Q 39.75 74.21875 46.484375 68.546875 
Q 53.21875 62.890625 53.21875 53.421875 
Q 53.21875 48.921875 51.53125 44.890625 
Q 49.859375 40.875 45.40625 35.40625 
Q 44.1875 33.984375 37.640625 27.21875 
Q 31.109375 20.453125 19.1875 8.296875 
z
" id="DejaVuSans-50"/>
      </defs>
      <g transform="translate(104.31329 576.338793)rotate(-45)scale(0.12 -0.12)">
       <use xlink:href="#DejaVuSans-67"/>
       <use x="69.824219" xlink:href="#DejaVuSans-65"/>
       <use x="138.232422" xlink:href="#DejaVuSans-76"/>
       <use x="193.867188" xlink:href="#DejaVuSans-85"/>
       <use x="267.060547" xlink:href="#DejaVuSans-51"/>
       <use x="330.683594" xlink:href="#DejaVuSans-95"/>
       <use x="380.683594" xlink:href="#DejaVuSans-49"/>
       <use x="444.306641" xlink:href="#DejaVuSans-50"/>
       <use x="507.929688" xlink:href="#DejaVuSans-72"/>
      </g>
     </g>
    </g>
    <g id="xtick_4">
     <g id="line2d_4">
      <g>
       <use style="stroke:#000000;stroke-width:0.8;" x="173.662851" xlink:href="#m3f9a3fb421" y="513.56"/>
      </g>
     </g>
     <g id="text_4">
      <!-- CALU3_24H -->
      <g transform="translate(151.07079 576.338793)rotate(-45)scale(0.12 -0.12)">
       <use xlink:href="#DejaVuSans-67"/>
       <use x="69.824219" xlink:href="#DejaVuSans-65"/>
       <use x="138.232422" xlink:href="#DejaVuSans-76"/>
       <use x="193.867188" xlink:href="#DejaVuSans-85"/>
       <use x="267.060547" xlink:href="#DejaVuSans-51"/>
       <use x="330.683594" xlink:href="#DejaVuSans-95"/>
       <use x="380.683594" xlink:href="#DejaVuSans-50"/>
       <use x="444.306641" xlink:href="#DejaVuSans-52"/>
       <use x="507.929688" xlink:href="#DejaVuSans-72"/>
      </g>
     </g>
    </g>
    <g id="xtick_5">
     <g id="line2d_5">
      <g>
       <use style="stroke:#000000;stroke-width:0.8;" x="220.420351" xlink:href="#m3f9a3fb421" y="513.56"/>
      </g>
     </g>
     <g id="text_5">
      <!-- H1299_4H -->
      <defs>
       <path d="M 10.984375 1.515625 
L 10.984375 10.5 
Q 14.703125 8.734375 18.5 7.8125 
Q 22.3125 6.890625 25.984375 6.890625 
Q 35.75 6.890625 40.890625 13.453125 
Q 46.046875 20.015625 46.78125 33.40625 
Q 43.953125 29.203125 39.59375 26.953125 
Q 35.25 24.703125 29.984375 24.703125 
Q 19.046875 24.703125 12.671875 31.3125 
Q 6.296875 37.9375 6.296875 49.421875 
Q 6.296875 60.640625 12.9375 67.421875 
Q 19.578125 74.21875 30.609375 74.21875 
Q 43.265625 74.21875 49.921875 64.515625 
Q 56.59375 54.828125 56.59375 36.375 
Q 56.59375 19.140625 48.40625 8.859375 
Q 40.234375 -1.421875 26.421875 -1.421875 
Q 22.703125 -1.421875 18.890625 -0.6875 
Q 15.09375 0.046875 10.984375 1.515625 
z
M 30.609375 32.421875 
Q 37.25 32.421875 41.125 36.953125 
Q 45.015625 41.5 45.015625 49.421875 
Q 45.015625 57.28125 41.125 61.84375 
Q 37.25 66.40625 30.609375 66.40625 
Q 23.96875 66.40625 20.09375 61.84375 
Q 16.21875 57.28125 16.21875 49.421875 
Q 16.21875 41.5 20.09375 36.953125 
Q 23.96875 32.421875 30.609375 32.421875 
z
" id="DejaVuSans-57"/>
      </defs>
      <g transform="translate(200.569433 570.856505)rotate(-45)scale(0.12 -0.12)">
       <use xlink:href="#DejaVuSans-72"/>
       <use x="75.195312" xlink:href="#DejaVuSans-49"/>
       <use x="138.818359" xlink:href="#DejaVuSans-50"/>
       <use x="202.441406" xlink:href="#DejaVuSans-57"/>
       <use x="266.064453" xlink:href="#DejaVuSans-57"/>
       <use x="329.6875" xlink:href="#DejaVuSans-95"/>
       <use x="379.6875" xlink:href="#DejaVuSans-52"/>
       <use x="443.310547" xlink:href="#DejaVuSans-72"/>
      </g>
     </g>
    </g>
    <g id="xtick_6">
     <g id="line2d_6">
      <g>
       <use style="stroke:#000000;stroke-width:0.8;" x="267.177851" xlink:href="#m3f9a3fb421" y="513.56"/>
      </g>
     </g>
     <g id="text_6">
      <!-- H1299_12H -->
      <g transform="translate(244.627553 576.255266)rotate(-45)scale(0.12 -0.12)">
       <use xlink:href="#DejaVuSans-72"/>
       <use x="75.195312" xlink:href="#DejaVuSans-49"/>
       <use x="138.818359" xlink:href="#DejaVuSans-50"/>
       <use x="202.441406" xlink:href="#DejaVuSans-57"/>
       <use x="266.064453" xlink:href="#DejaVuSans-57"/>
       <use x="329.6875" xlink:href="#DejaVuSans-95"/>
       <use x="379.6875" xlink:href="#DejaVuSans-49"/>
       <use x="443.310547" xlink:href="#DejaVuSans-50"/>
       <use x="506.933594" xlink:href="#DejaVuSans-72"/>
      </g>
     </g>
    </g>
    <g id="xtick_7">
     <g id="line2d_7">
      <g>
       <use style="stroke:#000000;stroke-width:0.8;" x="313.935351" xlink:href="#m3f9a3fb421" y="513.56"/>
      </g>
     </g>
     <g id="text_7">
      <!-- H1299_24H -->
      <g transform="translate(291.385053 576.255266)rotate(-45)scale(0.12 -0.12)">
       <use xlink:href="#DejaVuSans-72"/>
       <use x="75.195312" xlink:href="#DejaVuSans-49"/>
       <use x="138.818359" xlink:href="#DejaVuSans-50"/>
       <use x="202.441406" xlink:href="#DejaVuSans-57"/>
       <use x="266.064453" xlink:href="#DejaVuSans-57"/>
       <use x="329.6875" xlink:href="#DejaVuSans-95"/>
       <use x="379.6875" xlink:href="#DejaVuSans-50"/>
       <use x="443.310547" xlink:href="#DejaVuSans-52"/>
       <use x="506.933594" xlink:href="#DejaVuSans-72"/>
      </g>
     </g>
    </g>
    <g id="xtick_8">
     <g id="line2d_8">
      <g>
       <use style="stroke:#000000;stroke-width:0.8;" x="360.692851" xlink:href="#m3f9a3fb421" y="513.56"/>
      </g>
     </g>
     <g id="text_8">
      <!-- H1299_36H -->
      <defs>
       <path d="M 33.015625 40.375 
Q 26.375 40.375 22.484375 35.828125 
Q 18.609375 31.296875 18.609375 23.390625 
Q 18.609375 15.53125 22.484375 10.953125 
Q 26.375 6.390625 33.015625 6.390625 
Q 39.65625 6.390625 43.53125 10.953125 
Q 47.40625 15.53125 47.40625 23.390625 
Q 47.40625 31.296875 43.53125 35.828125 
Q 39.65625 40.375 33.015625 40.375 
z
M 52.59375 71.296875 
L 52.59375 62.3125 
Q 48.875 64.0625 45.09375 64.984375 
Q 41.3125 65.921875 37.59375 65.921875 
Q 27.828125 65.921875 22.671875 59.328125 
Q 17.53125 52.734375 16.796875 39.40625 
Q 19.671875 43.65625 24.015625 45.921875 
Q 28.375 48.1875 33.59375 48.1875 
Q 44.578125 48.1875 50.953125 41.515625 
Q 57.328125 34.859375 57.328125 23.390625 
Q 57.328125 12.15625 50.6875 5.359375 
Q 44.046875 -1.421875 33.015625 -1.421875 
Q 20.359375 -1.421875 13.671875 8.265625 
Q 6.984375 17.96875 6.984375 36.375 
Q 6.984375 53.65625 15.1875 63.9375 
Q 23.390625 74.21875 37.203125 74.21875 
Q 40.921875 74.21875 44.703125 73.484375 
Q 48.484375 72.75 52.59375 71.296875 
z
" id="DejaVuSans-54"/>
      </defs>
      <g transform="translate(338.142553 576.255266)rotate(-45)scale(0.12 -0.12)">
       <use xlink:href="#DejaVuSans-72"/>
       <use x="75.195312" xlink:href="#DejaVuSans-49"/>
       <use x="138.818359" xlink:href="#DejaVuSans-50"/>
       <use x="202.441406" xlink:href="#DejaVuSans-57"/>
       <use x="266.064453" xlink:href="#DejaVuSans-57"/>
       <use x="329.6875" xlink:href="#DejaVuSans-95"/>
       <use x="379.6875" xlink:href="#DejaVuSans-51"/>
       <use x="443.310547" xlink:href="#DejaVuSans-54"/>
       <use x="506.933594" xlink:href="#DejaVuSans-72"/>
      </g>
     </g>
    </g>
   </g>
   <g id="matplotlib.axis_2">
    <g id="ytick_1">
     <g id="line2d_9">
      <defs>
       <path d="M 0 0 
L 3.5 0 
" id="m357017b69e" style="stroke:#000000;stroke-width:0.8;"/>
      </defs>
      <g>
       <use style="stroke:#000000;stroke-width:0.8;" x="384.071601" xlink:href="#m357017b69e" y="30.216364"/>
      </g>
     </g>
     <g id="text_9">
      <!-- Selenocompound metabolism -->
      <defs>
       <path d="M 53.515625 70.515625 
L 53.515625 60.890625 
Q 47.90625 63.578125 42.921875 64.890625 
Q 37.9375 66.21875 33.296875 66.21875 
Q 25.25 66.21875 20.875 63.09375 
Q 16.5 59.96875 16.5 54.203125 
Q 16.5 49.359375 19.40625 46.890625 
Q 22.3125 44.4375 30.421875 42.921875 
L 36.375 41.703125 
Q 47.40625 39.59375 52.65625 34.296875 
Q 57.90625 29 57.90625 20.125 
Q 57.90625 9.515625 50.796875 4.046875 
Q 43.703125 -1.421875 29.984375 -1.421875 
Q 24.8125 -1.421875 18.96875 -0.25 
Q 13.140625 0.921875 6.890625 3.21875 
L 6.890625 13.375 
Q 12.890625 10.015625 18.65625 8.296875 
Q 24.421875 6.59375 29.984375 6.59375 
Q 38.421875 6.59375 43.015625 9.90625 
Q 47.609375 13.234375 47.609375 19.390625 
Q 47.609375 24.75 44.3125 27.78125 
Q 41.015625 30.8125 33.5 32.328125 
L 27.484375 33.5 
Q 16.453125 35.6875 11.515625 40.375 
Q 6.59375 45.0625 6.59375 53.421875 
Q 6.59375 63.09375 13.40625 68.65625 
Q 20.21875 74.21875 32.171875 74.21875 
Q 37.3125 74.21875 42.625 73.28125 
Q 47.953125 72.359375 53.515625 70.515625 
z
" id="DejaVuSans-83"/>
       <path d="M 56.203125 29.59375 
L 56.203125 25.203125 
L 14.890625 25.203125 
Q 15.484375 15.921875 20.484375 11.0625 
Q 25.484375 6.203125 34.421875 6.203125 
Q 39.59375 6.203125 44.453125 7.46875 
Q 49.3125 8.734375 54.109375 11.28125 
L 54.109375 2.78125 
Q 49.265625 0.734375 44.1875 -0.34375 
Q 39.109375 -1.421875 33.890625 -1.421875 
Q 20.796875 -1.421875 13.15625 6.1875 
Q 5.515625 13.8125 5.515625 26.8125 
Q 5.515625 40.234375 12.765625 48.109375 
Q 20.015625 56 32.328125 56 
Q 43.359375 56 49.78125 48.890625 
Q 56.203125 41.796875 56.203125 29.59375 
z
M 47.21875 32.234375 
Q 47.125 39.59375 43.09375 43.984375 
Q 39.0625 48.390625 32.421875 48.390625 
Q 24.90625 48.390625 20.390625 44.140625 
Q 15.875 39.890625 15.1875 32.171875 
z
" id="DejaVuSans-101"/>
       <path d="M 9.421875 75.984375 
L 18.40625 75.984375 
L 18.40625 0 
L 9.421875 0 
z
" id="DejaVuSans-108"/>
       <path d="M 54.890625 33.015625 
L 54.890625 0 
L 45.90625 0 
L 45.90625 32.71875 
Q 45.90625 40.484375 42.875 44.328125 
Q 39.84375 48.1875 33.796875 48.1875 
Q 26.515625 48.1875 22.3125 43.546875 
Q 18.109375 38.921875 18.109375 30.90625 
L 18.109375 0 
L 9.078125 0 
L 9.078125 54.6875 
L 18.109375 54.6875 
L 18.109375 46.1875 
Q 21.34375 51.125 25.703125 53.5625 
Q 30.078125 56 35.796875 56 
Q 45.21875 56 50.046875 50.171875 
Q 54.890625 44.34375 54.890625 33.015625 
z
" id="DejaVuSans-110"/>
       <path d="M 30.609375 48.390625 
Q 23.390625 48.390625 19.1875 42.75 
Q 14.984375 37.109375 14.984375 27.296875 
Q 14.984375 17.484375 19.15625 11.84375 
Q 23.34375 6.203125 30.609375 6.203125 
Q 37.796875 6.203125 41.984375 11.859375 
Q 46.1875 17.53125 46.1875 27.296875 
Q 46.1875 37.015625 41.984375 42.703125 
Q 37.796875 48.390625 30.609375 48.390625 
z
M 30.609375 56 
Q 42.328125 56 49.015625 48.375 
Q 55.71875 40.765625 55.71875 27.296875 
Q 55.71875 13.875 49.015625 6.21875 
Q 42.328125 -1.421875 30.609375 -1.421875 
Q 18.84375 -1.421875 12.171875 6.21875 
Q 5.515625 13.875 5.515625 27.296875 
Q 5.515625 40.765625 12.171875 48.375 
Q 18.84375 56 30.609375 56 
z
" id="DejaVuSans-111"/>
       <path d="M 48.78125 52.59375 
L 48.78125 44.1875 
Q 44.96875 46.296875 41.140625 47.34375 
Q 37.3125 48.390625 33.40625 48.390625 
Q 24.65625 48.390625 19.8125 42.84375 
Q 14.984375 37.3125 14.984375 27.296875 
Q 14.984375 17.28125 19.8125 11.734375 
Q 24.65625 6.203125 33.40625 6.203125 
Q 37.3125 6.203125 41.140625 7.25 
Q 44.96875 8.296875 48.78125 10.40625 
L 48.78125 2.09375 
Q 45.015625 0.34375 40.984375 -0.53125 
Q 36.96875 -1.421875 32.421875 -1.421875 
Q 20.0625 -1.421875 12.78125 6.34375 
Q 5.515625 14.109375 5.515625 27.296875 
Q 5.515625 40.671875 12.859375 48.328125 
Q 20.21875 56 33.015625 56 
Q 37.15625 56 41.109375 55.140625 
Q 45.0625 54.296875 48.78125 52.59375 
z
" id="DejaVuSans-99"/>
       <path d="M 52 44.1875 
Q 55.375 50.25 60.0625 53.125 
Q 64.75 56 71.09375 56 
Q 79.640625 56 84.28125 50.015625 
Q 88.921875 44.046875 88.921875 33.015625 
L 88.921875 0 
L 79.890625 0 
L 79.890625 32.71875 
Q 79.890625 40.578125 77.09375 44.375 
Q 74.3125 48.1875 68.609375 48.1875 
Q 61.625 48.1875 57.5625 43.546875 
Q 53.515625 38.921875 53.515625 30.90625 
L 53.515625 0 
L 44.484375 0 
L 44.484375 32.71875 
Q 44.484375 40.625 41.703125 44.40625 
Q 38.921875 48.1875 33.109375 48.1875 
Q 26.21875 48.1875 22.15625 43.53125 
Q 18.109375 38.875 18.109375 30.90625 
L 18.109375 0 
L 9.078125 0 
L 9.078125 54.6875 
L 18.109375 54.6875 
L 18.109375 46.1875 
Q 21.1875 51.21875 25.484375 53.609375 
Q 29.78125 56 35.6875 56 
Q 41.65625 56 45.828125 52.96875 
Q 50 49.953125 52 44.1875 
z
" id="DejaVuSans-109"/>
       <path d="M 18.109375 8.203125 
L 18.109375 -20.796875 
L 9.078125 -20.796875 
L 9.078125 54.6875 
L 18.109375 54.6875 
L 18.109375 46.390625 
Q 20.953125 51.265625 25.265625 53.625 
Q 29.59375 56 35.59375 56 
Q 45.5625 56 51.78125 48.09375 
Q 58.015625 40.1875 58.015625 27.296875 
Q 58.015625 14.40625 51.78125 6.484375 
Q 45.5625 -1.421875 35.59375 -1.421875 
Q 29.59375 -1.421875 25.265625 0.953125 
Q 20.953125 3.328125 18.109375 8.203125 
z
M 48.6875 27.296875 
Q 48.6875 37.203125 44.609375 42.84375 
Q 40.53125 48.484375 33.40625 48.484375 
Q 26.265625 48.484375 22.1875 42.84375 
Q 18.109375 37.203125 18.109375 27.296875 
Q 18.109375 17.390625 22.1875 11.75 
Q 26.265625 6.109375 33.40625 6.109375 
Q 40.53125 6.109375 44.609375 11.75 
Q 48.6875 17.390625 48.6875 27.296875 
z
" id="DejaVuSans-112"/>
       <path d="M 8.5 21.578125 
L 8.5 54.6875 
L 17.484375 54.6875 
L 17.484375 21.921875 
Q 17.484375 14.15625 20.5 10.265625 
Q 23.53125 6.390625 29.59375 6.390625 
Q 36.859375 6.390625 41.078125 11.03125 
Q 45.3125 15.671875 45.3125 23.6875 
L 45.3125 54.6875 
L 54.296875 54.6875 
L 54.296875 0 
L 45.3125 0 
L 45.3125 8.40625 
Q 42.046875 3.421875 37.71875 1 
Q 33.40625 -1.421875 27.6875 -1.421875 
Q 18.265625 -1.421875 13.375 4.4375 
Q 8.5 10.296875 8.5 21.578125 
z
M 31.109375 56 
z
" id="DejaVuSans-117"/>
       <path d="M 45.40625 46.390625 
L 45.40625 75.984375 
L 54.390625 75.984375 
L 54.390625 0 
L 45.40625 0 
L 45.40625 8.203125 
Q 42.578125 3.328125 38.25 0.953125 
Q 33.9375 -1.421875 27.875 -1.421875 
Q 17.96875 -1.421875 11.734375 6.484375 
Q 5.515625 14.40625 5.515625 27.296875 
Q 5.515625 40.1875 11.734375 48.09375 
Q 17.96875 56 27.875 56 
Q 33.9375 56 38.25 53.625 
Q 42.578125 51.265625 45.40625 46.390625 
z
M 14.796875 27.296875 
Q 14.796875 17.390625 18.875 11.75 
Q 22.953125 6.109375 30.078125 6.109375 
Q 37.203125 6.109375 41.296875 11.75 
Q 45.40625 17.390625 45.40625 27.296875 
Q 45.40625 37.203125 41.296875 42.84375 
Q 37.203125 48.484375 30.078125 48.484375 
Q 22.953125 48.484375 18.875 42.84375 
Q 14.796875 37.203125 14.796875 27.296875 
z
" id="DejaVuSans-100"/>
       <path id="DejaVuSans-32"/>
       <path d="M 18.3125 70.21875 
L 18.3125 54.6875 
L 36.8125 54.6875 
L 36.8125 47.703125 
L 18.3125 47.703125 
L 18.3125 18.015625 
Q 18.3125 11.328125 20.140625 9.421875 
Q 21.96875 7.515625 27.59375 7.515625 
L 36.8125 7.515625 
L 36.8125 0 
L 27.59375 0 
Q 17.1875 0 13.234375 3.875 
Q 9.28125 7.765625 9.28125 18.015625 
L 9.28125 47.703125 
L 2.6875 47.703125 
L 2.6875 54.6875 
L 9.28125 54.6875 
L 9.28125 70.21875 
z
" id="DejaVuSans-116"/>
       <path d="M 34.28125 27.484375 
Q 23.390625 27.484375 19.1875 25 
Q 14.984375 22.515625 14.984375 16.5 
Q 14.984375 11.71875 18.140625 8.90625 
Q 21.296875 6.109375 26.703125 6.109375 
Q 34.1875 6.109375 38.703125 11.40625 
Q 43.21875 16.703125 43.21875 25.484375 
L 43.21875 27.484375 
z
M 52.203125 31.203125 
L 52.203125 0 
L 43.21875 0 
L 43.21875 8.296875 
Q 40.140625 3.328125 35.546875 0.953125 
Q 30.953125 -1.421875 24.3125 -1.421875 
Q 15.921875 -1.421875 10.953125 3.296875 
Q 6 8.015625 6 15.921875 
Q 6 25.140625 12.171875 29.828125 
Q 18.359375 34.515625 30.609375 34.515625 
L 43.21875 34.515625 
L 43.21875 35.40625 
Q 43.21875 41.609375 39.140625 45 
Q 35.0625 48.390625 27.6875 48.390625 
Q 23 48.390625 18.546875 47.265625 
Q 14.109375 46.140625 10.015625 43.890625 
L 10.015625 52.203125 
Q 14.9375 54.109375 19.578125 55.046875 
Q 24.21875 56 28.609375 56 
Q 40.484375 56 46.34375 49.84375 
Q 52.203125 43.703125 52.203125 31.203125 
z
" id="DejaVuSans-97"/>
       <path d="M 48.6875 27.296875 
Q 48.6875 37.203125 44.609375 42.84375 
Q 40.53125 48.484375 33.40625 48.484375 
Q 26.265625 48.484375 22.1875 42.84375 
Q 18.109375 37.203125 18.109375 27.296875 
Q 18.109375 17.390625 22.1875 11.75 
Q 26.265625 6.109375 33.40625 6.109375 
Q 40.53125 6.109375 44.609375 11.75 
Q 48.6875 17.390625 48.6875 27.296875 
z
M 18.109375 46.390625 
Q 20.953125 51.265625 25.265625 53.625 
Q 29.59375 56 35.59375 56 
Q 45.5625 56 51.78125 48.09375 
Q 58.015625 40.1875 58.015625 27.296875 
Q 58.015625 14.40625 51.78125 6.484375 
Q 45.5625 -1.421875 35.59375 -1.421875 
Q 29.59375 -1.421875 25.265625 0.953125 
Q 20.953125 3.328125 18.109375 8.203125 
L 18.109375 0 
L 9.078125 0 
L 9.078125 75.984375 
L 18.109375 75.984375 
z
" id="DejaVuSans-98"/>
       <path d="M 9.421875 54.6875 
L 18.40625 54.6875 
L 18.40625 0 
L 9.421875 0 
z
M 9.421875 75.984375 
L 18.40625 75.984375 
L 18.40625 64.59375 
L 9.421875 64.59375 
z
" id="DejaVuSans-105"/>
       <path d="M 44.28125 53.078125 
L 44.28125 44.578125 
Q 40.484375 46.53125 36.375 47.5 
Q 32.28125 48.484375 27.875 48.484375 
Q 21.1875 48.484375 17.84375 46.4375 
Q 14.5 44.390625 14.5 40.28125 
Q 14.5 37.15625 16.890625 35.375 
Q 19.28125 33.59375 26.515625 31.984375 
L 29.59375 31.296875 
Q 39.15625 29.25 43.1875 25.515625 
Q 47.21875 21.78125 47.21875 15.09375 
Q 47.21875 7.46875 41.1875 3.015625 
Q 35.15625 -1.421875 24.609375 -1.421875 
Q 20.21875 -1.421875 15.453125 -0.5625 
Q 10.6875 0.296875 5.421875 2 
L 5.421875 11.28125 
Q 10.40625 8.6875 15.234375 7.390625 
Q 20.0625 6.109375 24.8125 6.109375 
Q 31.15625 6.109375 34.5625 8.28125 
Q 37.984375 10.453125 37.984375 14.40625 
Q 37.984375 18.0625 35.515625 20.015625 
Q 33.0625 21.96875 24.703125 23.78125 
L 21.578125 24.515625 
Q 13.234375 26.265625 9.515625 29.90625 
Q 5.8125 33.546875 5.8125 39.890625 
Q 5.8125 47.609375 11.28125 51.796875 
Q 16.75 56 26.8125 56 
Q 31.78125 56 36.171875 55.265625 
Q 40.578125 54.546875 44.28125 53.078125 
z
" id="DejaVuSans-115"/>
      </defs>
      <g transform="translate(391.071601 35.53527)scale(0.14 -0.14)">
       <use xlink:href="#DejaVuSans-83"/>
       <use x="63.476562" xlink:href="#DejaVuSans-101"/>
       <use x="125" xlink:href="#DejaVuSans-108"/>
       <use x="152.783203" xlink:href="#DejaVuSans-101"/>
       <use x="214.306641" xlink:href="#DejaVuSans-110"/>
       <use x="277.685547" xlink:href="#DejaVuSans-111"/>
       <use x="338.867188" xlink:href="#DejaVuSans-99"/>
       <use x="393.847656" xlink:href="#DejaVuSans-111"/>
       <use x="455.029297" xlink:href="#DejaVuSans-109"/>
       <use x="552.441406" xlink:href="#DejaVuSans-112"/>
       <use x="615.917969" xlink:href="#DejaVuSans-111"/>
       <use x="677.099609" xlink:href="#DejaVuSans-117"/>
       <use x="740.478516" xlink:href="#DejaVuSans-110"/>
       <use x="803.857422" xlink:href="#DejaVuSans-100"/>
       <use x="867.333984" xlink:href="#DejaVuSans-32"/>
       <use x="899.121094" xlink:href="#DejaVuSans-109"/>
       <use x="996.533203" xlink:href="#DejaVuSans-101"/>
       <use x="1058.056641" xlink:href="#DejaVuSans-116"/>
       <use x="1097.265625" xlink:href="#DejaVuSans-97"/>
       <use x="1158.544922" xlink:href="#DejaVuSans-98"/>
       <use x="1222.021484" xlink:href="#DejaVuSans-111"/>
       <use x="1283.203125" xlink:href="#DejaVuSans-108"/>
       <use x="1310.986328" xlink:href="#DejaVuSans-105"/>
       <use x="1338.769531" xlink:href="#DejaVuSans-115"/>
       <use x="1390.869141" xlink:href="#DejaVuSans-109"/>
      </g>
     </g>
    </g>
    <g id="ytick_2">
     <g id="line2d_10">
      <g>
       <use style="stroke:#000000;stroke-width:0.8;" x="384.071601" xlink:href="#m357017b69e" y="76.249091"/>
      </g>
     </g>
     <g id="text_10">
      <!-- Ferroptosis -->
      <defs>
       <path d="M 9.8125 72.90625 
L 51.703125 72.90625 
L 51.703125 64.59375 
L 19.671875 64.59375 
L 19.671875 43.109375 
L 48.578125 43.109375 
L 48.578125 34.8125 
L 19.671875 34.8125 
L 19.671875 0 
L 9.8125 0 
z
" id="DejaVuSans-70"/>
       <path d="M 41.109375 46.296875 
Q 39.59375 47.171875 37.8125 47.578125 
Q 36.03125 48 33.890625 48 
Q 26.265625 48 22.1875 43.046875 
Q 18.109375 38.09375 18.109375 28.8125 
L 18.109375 0 
L 9.078125 0 
L 9.078125 54.6875 
L 18.109375 54.6875 
L 18.109375 46.1875 
Q 20.953125 51.171875 25.484375 53.578125 
Q 30.03125 56 36.53125 56 
Q 37.453125 56 38.578125 55.875 
Q 39.703125 55.765625 41.0625 55.515625 
z
" id="DejaVuSans-114"/>
      </defs>
      <g transform="translate(391.071601 81.567997)scale(0.14 -0.14)">
       <use xlink:href="#DejaVuSans-70"/>
       <use x="57.441406" xlink:href="#DejaVuSans-101"/>
       <use x="118.964844" xlink:href="#DejaVuSans-114"/>
       <use x="160.0625" xlink:href="#DejaVuSans-114"/>
       <use x="201.144531" xlink:href="#DejaVuSans-111"/>
       <use x="262.326172" xlink:href="#DejaVuSans-112"/>
       <use x="325.802734" xlink:href="#DejaVuSans-116"/>
       <use x="365.011719" xlink:href="#DejaVuSans-111"/>
       <use x="426.193359" xlink:href="#DejaVuSans-115"/>
       <use x="478.292969" xlink:href="#DejaVuSans-105"/>
       <use x="506.076172" xlink:href="#DejaVuSans-115"/>
      </g>
     </g>
    </g>
    <g id="ytick_3">
     <g id="line2d_11">
      <g>
       <use style="stroke:#000000;stroke-width:0.8;" x="384.071601" xlink:href="#m357017b69e" y="122.281818"/>
      </g>
     </g>
     <g id="text_11">
      <!-- mTOR signaling pathway -->
      <defs>
       <path d="M -0.296875 72.90625 
L 61.375 72.90625 
L 61.375 64.59375 
L 35.5 64.59375 
L 35.5 0 
L 25.59375 0 
L 25.59375 64.59375 
L -0.296875 64.59375 
z
" id="DejaVuSans-84"/>
       <path d="M 39.40625 66.21875 
Q 28.65625 66.21875 22.328125 58.203125 
Q 16.015625 50.203125 16.015625 36.375 
Q 16.015625 22.609375 22.328125 14.59375 
Q 28.65625 6.59375 39.40625 6.59375 
Q 50.140625 6.59375 56.421875 14.59375 
Q 62.703125 22.609375 62.703125 36.375 
Q 62.703125 50.203125 56.421875 58.203125 
Q 50.140625 66.21875 39.40625 66.21875 
z
M 39.40625 74.21875 
Q 54.734375 74.21875 63.90625 63.9375 
Q 73.09375 53.65625 73.09375 36.375 
Q 73.09375 19.140625 63.90625 8.859375 
Q 54.734375 -1.421875 39.40625 -1.421875 
Q 24.03125 -1.421875 14.8125 8.828125 
Q 5.609375 19.09375 5.609375 36.375 
Q 5.609375 53.65625 14.8125 63.9375 
Q 24.03125 74.21875 39.40625 74.21875 
z
" id="DejaVuSans-79"/>
       <path d="M 44.390625 34.1875 
Q 47.5625 33.109375 50.5625 29.59375 
Q 53.5625 26.078125 56.59375 19.921875 
L 66.609375 0 
L 56 0 
L 46.6875 18.703125 
Q 43.0625 26.03125 39.671875 28.421875 
Q 36.28125 30.8125 30.421875 30.8125 
L 19.671875 30.8125 
L 19.671875 0 
L 9.8125 0 
L 9.8125 72.90625 
L 32.078125 72.90625 
Q 44.578125 72.90625 50.734375 67.671875 
Q 56.890625 62.453125 56.890625 51.90625 
Q 56.890625 45.015625 53.6875 40.46875 
Q 50.484375 35.9375 44.390625 34.1875 
z
M 19.671875 64.796875 
L 19.671875 38.921875 
L 32.078125 38.921875 
Q 39.203125 38.921875 42.84375 42.21875 
Q 46.484375 45.515625 46.484375 51.90625 
Q 46.484375 58.296875 42.84375 61.546875 
Q 39.203125 64.796875 32.078125 64.796875 
z
" id="DejaVuSans-82"/>
       <path d="M 45.40625 27.984375 
Q 45.40625 37.75 41.375 43.109375 
Q 37.359375 48.484375 30.078125 48.484375 
Q 22.859375 48.484375 18.828125 43.109375 
Q 14.796875 37.75 14.796875 27.984375 
Q 14.796875 18.265625 18.828125 12.890625 
Q 22.859375 7.515625 30.078125 7.515625 
Q 37.359375 7.515625 41.375 12.890625 
Q 45.40625 18.265625 45.40625 27.984375 
z
M 54.390625 6.78125 
Q 54.390625 -7.171875 48.1875 -13.984375 
Q 42 -20.796875 29.203125 -20.796875 
Q 24.46875 -20.796875 20.265625 -20.09375 
Q 16.0625 -19.390625 12.109375 -17.921875 
L 12.109375 -9.1875 
Q 16.0625 -11.328125 19.921875 -12.34375 
Q 23.78125 -13.375 27.78125 -13.375 
Q 36.625 -13.375 41.015625 -8.765625 
Q 45.40625 -4.15625 45.40625 5.171875 
L 45.40625 9.625 
Q 42.625 4.78125 38.28125 2.390625 
Q 33.9375 0 27.875 0 
Q 17.828125 0 11.671875 7.65625 
Q 5.515625 15.328125 5.515625 27.984375 
Q 5.515625 40.671875 11.671875 48.328125 
Q 17.828125 56 27.875 56 
Q 33.9375 56 38.28125 53.609375 
Q 42.625 51.21875 45.40625 46.390625 
L 45.40625 54.6875 
L 54.390625 54.6875 
z
" id="DejaVuSans-103"/>
       <path d="M 54.890625 33.015625 
L 54.890625 0 
L 45.90625 0 
L 45.90625 32.71875 
Q 45.90625 40.484375 42.875 44.328125 
Q 39.84375 48.1875 33.796875 48.1875 
Q 26.515625 48.1875 22.3125 43.546875 
Q 18.109375 38.921875 18.109375 30.90625 
L 18.109375 0 
L 9.078125 0 
L 9.078125 75.984375 
L 18.109375 75.984375 
L 18.109375 46.1875 
Q 21.34375 51.125 25.703125 53.5625 
Q 30.078125 56 35.796875 56 
Q 45.21875 56 50.046875 50.171875 
Q 54.890625 44.34375 54.890625 33.015625 
z
" id="DejaVuSans-104"/>
       <path d="M 4.203125 54.6875 
L 13.1875 54.6875 
L 24.421875 12.015625 
L 35.59375 54.6875 
L 46.1875 54.6875 
L 57.421875 12.015625 
L 68.609375 54.6875 
L 77.59375 54.6875 
L 63.28125 0 
L 52.6875 0 
L 40.921875 44.828125 
L 29.109375 0 
L 18.5 0 
z
" id="DejaVuSans-119"/>
       <path d="M 32.171875 -5.078125 
Q 28.375 -14.84375 24.75 -17.8125 
Q 21.140625 -20.796875 15.09375 -20.796875 
L 7.90625 -20.796875 
L 7.90625 -13.28125 
L 13.1875 -13.28125 
Q 16.890625 -13.28125 18.9375 -11.515625 
Q 21 -9.765625 23.484375 -3.21875 
L 25.09375 0.875 
L 2.984375 54.6875 
L 12.5 54.6875 
L 29.59375 11.921875 
L 46.6875 54.6875 
L 56.203125 54.6875 
z
" id="DejaVuSans-121"/>
      </defs>
      <g transform="translate(391.071601 127.600724)scale(0.14 -0.14)">
       <use xlink:href="#DejaVuSans-109"/>
       <use x="97.412109" xlink:href="#DejaVuSans-84"/>
       <use x="158.496094" xlink:href="#DejaVuSans-79"/>
       <use x="237.207031" xlink:href="#DejaVuSans-82"/>
       <use x="306.689453" xlink:href="#DejaVuSans-32"/>
       <use x="338.476562" xlink:href="#DejaVuSans-115"/>
       <use x="390.576172" xlink:href="#DejaVuSans-105"/>
       <use x="418.359375" xlink:href="#DejaVuSans-103"/>
       <use x="481.835938" xlink:href="#DejaVuSans-110"/>
       <use x="545.214844" xlink:href="#DejaVuSans-97"/>
       <use x="606.494141" xlink:href="#DejaVuSans-108"/>
       <use x="634.277344" xlink:href="#DejaVuSans-105"/>
       <use x="662.060547" xlink:href="#DejaVuSans-110"/>
       <use x="725.439453" xlink:href="#DejaVuSans-103"/>
       <use x="788.916016" xlink:href="#DejaVuSans-32"/>
       <use x="820.703125" xlink:href="#DejaVuSans-112"/>
       <use x="884.179688" xlink:href="#DejaVuSans-97"/>
       <use x="945.458984" xlink:href="#DejaVuSans-116"/>
       <use x="984.667969" xlink:href="#DejaVuSans-104"/>
       <use x="1048.046875" xlink:href="#DejaVuSans-119"/>
       <use x="1129.833984" xlink:href="#DejaVuSans-97"/>
       <use x="1191.113281" xlink:href="#DejaVuSans-121"/>
      </g>
     </g>
    </g>
    <g id="ytick_4">
     <g id="line2d_12">
      <g>
       <use style="stroke:#000000;stroke-width:0.8;" x="384.071601" xlink:href="#m357017b69e" y="168.314545"/>
      </g>
     </g>
     <g id="text_12">
      <!-- Central carbon metabolism in cancer -->
      <g transform="translate(391.071601 173.633452)scale(0.14 -0.14)">
       <use xlink:href="#DejaVuSans-67"/>
       <use x="69.824219" xlink:href="#DejaVuSans-101"/>
       <use x="131.347656" xlink:href="#DejaVuSans-110"/>
       <use x="194.726562" xlink:href="#DejaVuSans-116"/>
       <use x="233.935547" xlink:href="#DejaVuSans-114"/>
       <use x="275.048828" xlink:href="#DejaVuSans-97"/>
       <use x="336.328125" xlink:href="#DejaVuSans-108"/>
       <use x="364.111328" xlink:href="#DejaVuSans-32"/>
       <use x="395.898438" xlink:href="#DejaVuSans-99"/>
       <use x="450.878906" xlink:href="#DejaVuSans-97"/>
       <use x="512.158203" xlink:href="#DejaVuSans-114"/>
       <use x="553.271484" xlink:href="#DejaVuSans-98"/>
       <use x="616.748047" xlink:href="#DejaVuSans-111"/>
       <use x="677.929688" xlink:href="#DejaVuSans-110"/>
       <use x="741.308594" xlink:href="#DejaVuSans-32"/>
       <use x="773.095703" xlink:href="#DejaVuSans-109"/>
       <use x="870.507812" xlink:href="#DejaVuSans-101"/>
       <use x="932.03125" xlink:href="#DejaVuSans-116"/>
       <use x="971.240234" xlink:href="#DejaVuSans-97"/>
       <use x="1032.519531" xlink:href="#DejaVuSans-98"/>
       <use x="1095.996094" xlink:href="#DejaVuSans-111"/>
       <use x="1157.177734" xlink:href="#DejaVuSans-108"/>
       <use x="1184.960938" xlink:href="#DejaVuSans-105"/>
       <use x="1212.744141" xlink:href="#DejaVuSans-115"/>
       <use x="1264.84375" xlink:href="#DejaVuSans-109"/>
       <use x="1362.255859" xlink:href="#DejaVuSans-32"/>
       <use x="1394.042969" xlink:href="#DejaVuSans-105"/>
       <use x="1421.826172" xlink:href="#DejaVuSans-110"/>
       <use x="1485.205078" xlink:href="#DejaVuSans-32"/>
       <use x="1516.992188" xlink:href="#DejaVuSans-99"/>
       <use x="1571.972656" xlink:href="#DejaVuSans-97"/>
       <use x="1633.251953" xlink:href="#DejaVuSans-110"/>
       <use x="1696.630859" xlink:href="#DejaVuSans-99"/>
       <use x="1751.611328" xlink:href="#DejaVuSans-101"/>
       <use x="1813.134766" xlink:href="#DejaVuSans-114"/>
      </g>
     </g>
    </g>
    <g id="ytick_5">
     <g id="line2d_13">
      <g>
       <use style="stroke:#000000;stroke-width:0.8;" x="384.071601" xlink:href="#m357017b69e" y="214.347273"/>
      </g>
     </g>
     <g id="text_13">
      <!-- Ether lipid metabolism -->
      <defs>
       <path d="M 9.8125 72.90625 
L 55.90625 72.90625 
L 55.90625 64.59375 
L 19.671875 64.59375 
L 19.671875 43.015625 
L 54.390625 43.015625 
L 54.390625 34.71875 
L 19.671875 34.71875 
L 19.671875 8.296875 
L 56.78125 8.296875 
L 56.78125 0 
L 9.8125 0 
z
" id="DejaVuSans-69"/>
      </defs>
      <g transform="translate(391.071601 219.666179)scale(0.14 -0.14)">
       <use xlink:href="#DejaVuSans-69"/>
       <use x="63.183594" xlink:href="#DejaVuSans-116"/>
       <use x="102.392578" xlink:href="#DejaVuSans-104"/>
       <use x="165.771484" xlink:href="#DejaVuSans-101"/>
       <use x="227.294922" xlink:href="#DejaVuSans-114"/>
       <use x="268.408203" xlink:href="#DejaVuSans-32"/>
       <use x="300.195312" xlink:href="#DejaVuSans-108"/>
       <use x="327.978516" xlink:href="#DejaVuSans-105"/>
       <use x="355.761719" xlink:href="#DejaVuSans-112"/>
       <use x="419.238281" xlink:href="#DejaVuSans-105"/>
       <use x="447.021484" xlink:href="#DejaVuSans-100"/>
       <use x="510.498047" xlink:href="#DejaVuSans-32"/>
       <use x="542.285156" xlink:href="#DejaVuSans-109"/>
       <use x="639.697266" xlink:href="#DejaVuSans-101"/>
       <use x="701.220703" xlink:href="#DejaVuSans-116"/>
       <use x="740.429688" xlink:href="#DejaVuSans-97"/>
       <use x="801.708984" xlink:href="#DejaVuSans-98"/>
       <use x="865.185547" xlink:href="#DejaVuSans-111"/>
       <use x="926.367188" xlink:href="#DejaVuSans-108"/>
       <use x="954.150391" xlink:href="#DejaVuSans-105"/>
       <use x="981.933594" xlink:href="#DejaVuSans-115"/>
       <use x="1034.033203" xlink:href="#DejaVuSans-109"/>
      </g>
     </g>
    </g>
    <g id="ytick_6">
     <g id="line2d_14">
      <g>
       <use style="stroke:#000000;stroke-width:0.8;" x="384.071601" xlink:href="#m357017b69e" y="260.38"/>
      </g>
     </g>
     <g id="text_14">
      <!-- Glycine, serine and threonine metabolism -->
      <defs>
       <path d="M 59.515625 10.40625 
L 59.515625 29.984375 
L 43.40625 29.984375 
L 43.40625 38.09375 
L 69.28125 38.09375 
L 69.28125 6.78125 
Q 63.578125 2.734375 56.6875 0.65625 
Q 49.8125 -1.421875 42 -1.421875 
Q 24.90625 -1.421875 15.25 8.5625 
Q 5.609375 18.5625 5.609375 36.375 
Q 5.609375 54.25 15.25 64.234375 
Q 24.90625 74.21875 42 74.21875 
Q 49.125 74.21875 55.546875 72.453125 
Q 61.96875 70.703125 67.390625 67.28125 
L 67.390625 56.78125 
Q 61.921875 61.421875 55.765625 63.765625 
Q 49.609375 66.109375 42.828125 66.109375 
Q 29.4375 66.109375 22.71875 58.640625 
Q 16.015625 51.171875 16.015625 36.375 
Q 16.015625 21.625 22.71875 14.15625 
Q 29.4375 6.6875 42.828125 6.6875 
Q 48.046875 6.6875 52.140625 7.59375 
Q 56.25 8.5 59.515625 10.40625 
z
" id="DejaVuSans-71"/>
       <path d="M 11.71875 12.40625 
L 22.015625 12.40625 
L 22.015625 4 
L 14.015625 -11.625 
L 7.71875 -11.625 
L 11.71875 4 
z
" id="DejaVuSans-44"/>
      </defs>
      <g transform="translate(391.071601 265.698906)scale(0.14 -0.14)">
       <use xlink:href="#DejaVuSans-71"/>
       <use x="77.490234" xlink:href="#DejaVuSans-108"/>
       <use x="105.273438" xlink:href="#DejaVuSans-121"/>
       <use x="164.453125" xlink:href="#DejaVuSans-99"/>
       <use x="219.433594" xlink:href="#DejaVuSans-105"/>
       <use x="247.216797" xlink:href="#DejaVuSans-110"/>
       <use x="310.595703" xlink:href="#DejaVuSans-101"/>
       <use x="372.119141" xlink:href="#DejaVuSans-44"/>
       <use x="403.90625" xlink:href="#DejaVuSans-32"/>
       <use x="435.693359" xlink:href="#DejaVuSans-115"/>
       <use x="487.792969" xlink:href="#DejaVuSans-101"/>
       <use x="549.316406" xlink:href="#DejaVuSans-114"/>
       <use x="590.429688" xlink:href="#DejaVuSans-105"/>
       <use x="618.212891" xlink:href="#DejaVuSans-110"/>
       <use x="681.591797" xlink:href="#DejaVuSans-101"/>
       <use x="743.115234" xlink:href="#DejaVuSans-32"/>
       <use x="774.902344" xlink:href="#DejaVuSans-97"/>
       <use x="836.181641" xlink:href="#DejaVuSans-110"/>
       <use x="899.560547" xlink:href="#DejaVuSans-100"/>
       <use x="963.037109" xlink:href="#DejaVuSans-32"/>
       <use x="994.824219" xlink:href="#DejaVuSans-116"/>
       <use x="1034.033203" xlink:href="#DejaVuSans-104"/>
       <use x="1097.412109" xlink:href="#DejaVuSans-114"/>
       <use x="1138.494141" xlink:href="#DejaVuSans-101"/>
       <use x="1200.017578" xlink:href="#DejaVuSans-111"/>
       <use x="1261.199219" xlink:href="#DejaVuSans-110"/>
       <use x="1324.578125" xlink:href="#DejaVuSans-105"/>
       <use x="1352.361328" xlink:href="#DejaVuSans-110"/>
       <use x="1415.740234" xlink:href="#DejaVuSans-101"/>
       <use x="1477.263672" xlink:href="#DejaVuSans-32"/>
       <use x="1509.050781" xlink:href="#DejaVuSans-109"/>
       <use x="1606.462891" xlink:href="#DejaVuSans-101"/>
       <use x="1667.986328" xlink:href="#DejaVuSans-116"/>
       <use x="1707.195312" xlink:href="#DejaVuSans-97"/>
       <use x="1768.474609" xlink:href="#DejaVuSans-98"/>
       <use x="1831.951172" xlink:href="#DejaVuSans-111"/>
       <use x="1893.132812" xlink:href="#DejaVuSans-108"/>
       <use x="1920.916016" xlink:href="#DejaVuSans-105"/>
       <use x="1948.699219" xlink:href="#DejaVuSans-115"/>
       <use x="2000.798828" xlink:href="#DejaVuSans-109"/>
      </g>
     </g>
    </g>
    <g id="ytick_7">
     <g id="line2d_15">
      <g>
       <use style="stroke:#000000;stroke-width:0.8;" x="384.071601" xlink:href="#m357017b69e" y="306.412727"/>
      </g>
     </g>
     <g id="text_15">
      <!-- Cysteine and methionine metabolism -->
      <g transform="translate(391.071601 311.731634)scale(0.14 -0.14)">
       <use xlink:href="#DejaVuSans-67"/>
       <use x="69.824219" xlink:href="#DejaVuSans-121"/>
       <use x="129.003906" xlink:href="#DejaVuSans-115"/>
       <use x="181.103516" xlink:href="#DejaVuSans-116"/>
       <use x="220.3125" xlink:href="#DejaVuSans-101"/>
       <use x="281.835938" xlink:href="#DejaVuSans-105"/>
       <use x="309.619141" xlink:href="#DejaVuSans-110"/>
       <use x="372.998047" xlink:href="#DejaVuSans-101"/>
       <use x="434.521484" xlink:href="#DejaVuSans-32"/>
       <use x="466.308594" xlink:href="#DejaVuSans-97"/>
       <use x="527.587891" xlink:href="#DejaVuSans-110"/>
       <use x="590.966797" xlink:href="#DejaVuSans-100"/>
       <use x="654.443359" xlink:href="#DejaVuSans-32"/>
       <use x="686.230469" xlink:href="#DejaVuSans-109"/>
       <use x="783.642578" xlink:href="#DejaVuSans-101"/>
       <use x="845.166016" xlink:href="#DejaVuSans-116"/>
       <use x="884.375" xlink:href="#DejaVuSans-104"/>
       <use x="947.753906" xlink:href="#DejaVuSans-105"/>
       <use x="975.537109" xlink:href="#DejaVuSans-111"/>
       <use x="1036.71875" xlink:href="#DejaVuSans-110"/>
       <use x="1100.097656" xlink:href="#DejaVuSans-105"/>
       <use x="1127.880859" xlink:href="#DejaVuSans-110"/>
       <use x="1191.259766" xlink:href="#DejaVuSans-101"/>
       <use x="1252.783203" xlink:href="#DejaVuSans-32"/>
       <use x="1284.570312" xlink:href="#DejaVuSans-109"/>
       <use x="1381.982422" xlink:href="#DejaVuSans-101"/>
       <use x="1443.505859" xlink:href="#DejaVuSans-116"/>
       <use x="1482.714844" xlink:href="#DejaVuSans-97"/>
       <use x="1543.994141" xlink:href="#DejaVuSans-98"/>
       <use x="1607.470703" xlink:href="#DejaVuSans-111"/>
       <use x="1668.652344" xlink:href="#DejaVuSans-108"/>
       <use x="1696.435547" xlink:href="#DejaVuSans-105"/>
       <use x="1724.21875" xlink:href="#DejaVuSans-115"/>
       <use x="1776.318359" xlink:href="#DejaVuSans-109"/>
      </g>
     </g>
    </g>
    <g id="ytick_8">
     <g id="line2d_16">
      <g>
       <use style="stroke:#000000;stroke-width:0.8;" x="384.071601" xlink:href="#m357017b69e" y="352.445455"/>
      </g>
     </g>
     <g id="text_16">
      <!-- Fat digestion and absorption -->
      <g transform="translate(391.071601 357.764361)scale(0.14 -0.14)">
       <use xlink:href="#DejaVuSans-70"/>
       <use x="57.378906" xlink:href="#DejaVuSans-97"/>
       <use x="118.658203" xlink:href="#DejaVuSans-116"/>
       <use x="157.867188" xlink:href="#DejaVuSans-32"/>
       <use x="189.654297" xlink:href="#DejaVuSans-100"/>
       <use x="253.130859" xlink:href="#DejaVuSans-105"/>
       <use x="280.914062" xlink:href="#DejaVuSans-103"/>
       <use x="344.390625" xlink:href="#DejaVuSans-101"/>
       <use x="405.914062" xlink:href="#DejaVuSans-115"/>
       <use x="458.013672" xlink:href="#DejaVuSans-116"/>
       <use x="497.222656" xlink:href="#DejaVuSans-105"/>
       <use x="525.005859" xlink:href="#DejaVuSans-111"/>
       <use x="586.1875" xlink:href="#DejaVuSans-110"/>
       <use x="649.566406" xlink:href="#DejaVuSans-32"/>
       <use x="681.353516" xlink:href="#DejaVuSans-97"/>
       <use x="742.632812" xlink:href="#DejaVuSans-110"/>
       <use x="806.011719" xlink:href="#DejaVuSans-100"/>
       <use x="869.488281" xlink:href="#DejaVuSans-32"/>
       <use x="901.275391" xlink:href="#DejaVuSans-97"/>
       <use x="962.554688" xlink:href="#DejaVuSans-98"/>
       <use x="1026.03125" xlink:href="#DejaVuSans-115"/>
       <use x="1078.130859" xlink:href="#DejaVuSans-111"/>
       <use x="1139.3125" xlink:href="#DejaVuSans-114"/>
       <use x="1180.425781" xlink:href="#DejaVuSans-112"/>
       <use x="1243.902344" xlink:href="#DejaVuSans-116"/>
       <use x="1283.111328" xlink:href="#DejaVuSans-105"/>
       <use x="1310.894531" xlink:href="#DejaVuSans-111"/>
       <use x="1372.076172" xlink:href="#DejaVuSans-110"/>
      </g>
     </g>
    </g>
    <g id="ytick_9">
     <g id="line2d_17">
      <g>
       <use style="stroke:#000000;stroke-width:0.8;" x="384.071601" xlink:href="#m357017b69e" y="398.478182"/>
      </g>
     </g>
     <g id="text_17">
      <!-- Sphingolipid metabolism -->
      <g transform="translate(391.071601 403.797088)scale(0.14 -0.14)">
       <use xlink:href="#DejaVuSans-83"/>
       <use x="63.476562" xlink:href="#DejaVuSans-112"/>
       <use x="126.953125" xlink:href="#DejaVuSans-104"/>
       <use x="190.332031" xlink:href="#DejaVuSans-105"/>
       <use x="218.115234" xlink:href="#DejaVuSans-110"/>
       <use x="281.494141" xlink:href="#DejaVuSans-103"/>
       <use x="344.970703" xlink:href="#DejaVuSans-111"/>
       <use x="406.152344" xlink:href="#DejaVuSans-108"/>
       <use x="433.935547" xlink:href="#DejaVuSans-105"/>
       <use x="461.71875" xlink:href="#DejaVuSans-112"/>
       <use x="525.195312" xlink:href="#DejaVuSans-105"/>
       <use x="552.978516" xlink:href="#DejaVuSans-100"/>
       <use x="616.455078" xlink:href="#DejaVuSans-32"/>
       <use x="648.242188" xlink:href="#DejaVuSans-109"/>
       <use x="745.654297" xlink:href="#DejaVuSans-101"/>
       <use x="807.177734" xlink:href="#DejaVuSans-116"/>
       <use x="846.386719" xlink:href="#DejaVuSans-97"/>
       <use x="907.666016" xlink:href="#DejaVuSans-98"/>
       <use x="971.142578" xlink:href="#DejaVuSans-111"/>
       <use x="1032.324219" xlink:href="#DejaVuSans-108"/>
       <use x="1060.107422" xlink:href="#DejaVuSans-105"/>
       <use x="1087.890625" xlink:href="#DejaVuSans-115"/>
       <use x="1139.990234" xlink:href="#DejaVuSans-109"/>
      </g>
     </g>
    </g>
    <g id="ytick_10">
     <g id="line2d_18">
      <g>
       <use style="stroke:#000000;stroke-width:0.8;" x="384.071601" xlink:href="#m357017b69e" y="444.510909"/>
      </g>
     </g>
     <g id="text_18">
      <!-- Glycerophospholipid metabolism -->
      <g transform="translate(391.071601 449.829815)scale(0.14 -0.14)">
       <use xlink:href="#DejaVuSans-71"/>
       <use x="77.490234" xlink:href="#DejaVuSans-108"/>
       <use x="105.273438" xlink:href="#DejaVuSans-121"/>
       <use x="164.453125" xlink:href="#DejaVuSans-99"/>
       <use x="219.433594" xlink:href="#DejaVuSans-101"/>
       <use x="280.957031" xlink:href="#DejaVuSans-114"/>
       <use x="322.039062" xlink:href="#DejaVuSans-111"/>
       <use x="383.220703" xlink:href="#DejaVuSans-112"/>
       <use x="446.697266" xlink:href="#DejaVuSans-104"/>
       <use x="510.076172" xlink:href="#DejaVuSans-111"/>
       <use x="571.257812" xlink:href="#DejaVuSans-115"/>
       <use x="623.357422" xlink:href="#DejaVuSans-112"/>
       <use x="686.833984" xlink:href="#DejaVuSans-104"/>
       <use x="750.212891" xlink:href="#DejaVuSans-111"/>
       <use x="811.394531" xlink:href="#DejaVuSans-108"/>
       <use x="839.177734" xlink:href="#DejaVuSans-105"/>
       <use x="866.960938" xlink:href="#DejaVuSans-112"/>
       <use x="930.4375" xlink:href="#DejaVuSans-105"/>
       <use x="958.220703" xlink:href="#DejaVuSans-100"/>
       <use x="1021.697266" xlink:href="#DejaVuSans-32"/>
       <use x="1053.484375" xlink:href="#DejaVuSans-109"/>
       <use x="1150.896484" xlink:href="#DejaVuSans-101"/>
       <use x="1212.419922" xlink:href="#DejaVuSans-116"/>
       <use x="1251.628906" xlink:href="#DejaVuSans-97"/>
       <use x="1312.908203" xlink:href="#DejaVuSans-98"/>
       <use x="1376.384766" xlink:href="#DejaVuSans-111"/>
       <use x="1437.566406" xlink:href="#DejaVuSans-108"/>
       <use x="1465.349609" xlink:href="#DejaVuSans-105"/>
       <use x="1493.132812" xlink:href="#DejaVuSans-115"/>
       <use x="1545.232422" xlink:href="#DejaVuSans-109"/>
      </g>
     </g>
    </g>
    <g id="ytick_11">
     <g id="line2d_19">
      <g>
       <use style="stroke:#000000;stroke-width:0.8;" x="384.071601" xlink:href="#m357017b69e" y="490.543636"/>
      </g>
     </g>
     <g id="text_19">
      <!-- Sphingolipid signaling pathway -->
      <g transform="translate(391.071601 495.862543)scale(0.14 -0.14)">
       <use xlink:href="#DejaVuSans-83"/>
       <use x="63.476562" xlink:href="#DejaVuSans-112"/>
       <use x="126.953125" xlink:href="#DejaVuSans-104"/>
       <use x="190.332031" xlink:href="#DejaVuSans-105"/>
       <use x="218.115234" xlink:href="#DejaVuSans-110"/>
       <use x="281.494141" xlink:href="#DejaVuSans-103"/>
       <use x="344.970703" xlink:href="#DejaVuSans-111"/>
       <use x="406.152344" xlink:href="#DejaVuSans-108"/>
       <use x="433.935547" xlink:href="#DejaVuSans-105"/>
       <use x="461.71875" xlink:href="#DejaVuSans-112"/>
       <use x="525.195312" xlink:href="#DejaVuSans-105"/>
       <use x="552.978516" xlink:href="#DejaVuSans-100"/>
       <use x="616.455078" xlink:href="#DejaVuSans-32"/>
       <use x="648.242188" xlink:href="#DejaVuSans-115"/>
       <use x="700.341797" xlink:href="#DejaVuSans-105"/>
       <use x="728.125" xlink:href="#DejaVuSans-103"/>
       <use x="791.601562" xlink:href="#DejaVuSans-110"/>
       <use x="854.980469" xlink:href="#DejaVuSans-97"/>
       <use x="916.259766" xlink:href="#DejaVuSans-108"/>
       <use x="944.042969" xlink:href="#DejaVuSans-105"/>
       <use x="971.826172" xlink:href="#DejaVuSans-110"/>
       <use x="1035.205078" xlink:href="#DejaVuSans-103"/>
       <use x="1098.681641" xlink:href="#DejaVuSans-32"/>
       <use x="1130.46875" xlink:href="#DejaVuSans-112"/>
       <use x="1193.945312" xlink:href="#DejaVuSans-97"/>
       <use x="1255.224609" xlink:href="#DejaVuSans-116"/>
       <use x="1294.433594" xlink:href="#DejaVuSans-104"/>
       <use x="1357.8125" xlink:href="#DejaVuSans-119"/>
       <use x="1439.599609" xlink:href="#DejaVuSans-97"/>
       <use x="1500.878906" xlink:href="#DejaVuSans-121"/>
      </g>
     </g>
    </g>
    <g id="text_20">
     <!-- Term -->
     <g transform="translate(696.416289 273.422188)rotate(-90)scale(0.1 -0.1)">
      <use xlink:href="#DejaVuSans-84"/>
      <use x="60.818359" xlink:href="#DejaVuSans-101"/>
      <use x="122.341797" xlink:href="#DejaVuSans-114"/>
      <use x="163.439453" xlink:href="#DejaVuSans-109"/>
     </g>
    </g>
   </g>
  </g>
 </g>
 <defs>
  <clipPath id="p72e71e9e3a">
   <rect height="506.36" width="374.06" x="10.011601" y="7.2"/>
  </clipPath>
 </defs>
</svg>
